# Blender v2.71 (sub 0) OBJ File: ''
# www.blender.org
o Icosphere
v -1.194667 0.000000 -1.194667
v -1.000000 -1.000000 -1.000000
v -1.194667 -1.194667 -0.000000
v 1.194667 0.000000 -1.194667
v 1.000000 -1.000000 -1.000000
v 0.000000 -1.194667 -1.194667
v 1.194667 -0.000000 1.194667
v 1.000000 -1.000000 1.000000
v 1.194667 -1.194667 -0.000000
v -1.194667 -0.000000 1.194667
v -1.000000 -1.000000 1.000000
v 0.000000 -1.194667 1.194667
v 0.000000 1.194667 -1.194667
v -1.000000 1.000000 -1.000000
v -1.194667 1.194667 0.000000
v -1.543509 0.000000 0.000000
v 0.000000 0.000000 -1.543509
v 1.000000 1.000000 -1.000000
v 1.543509 0.000000 0.000000
v 1.194667 1.194667 0.000000
v 1.000000 1.000000 1.000000
v 0.000000 -0.000000 1.543509
v 0.000000 1.194667 1.194667
v -1.000000 1.000000 1.000000
v 0.000000 -1.543509 -0.000000
v 0.000000 1.543509 0.000000
vt 0.500000 0.000000
vt 0.666667 0.000000
vt 0.666667 0.166667
vt 0.166667 0.333333
vt 0.333333 0.333333
vt 0.333333 0.500000
vt 0.166667 0.000000
vt 0.333333 0.000000
vt 0.333333 0.166667
vt 0.666667 0.500000
vt 0.666667 0.666667
vt 0.500000 0.666667
vt 0.833333 0.333333
vt 0.666667 0.333333
vt 0.333333 0.833333
vt 0.333333 1.000000
vt 0.166667 1.000000
vt 0.500000 0.333333
vt 0.500000 0.166667
vt 0.166667 0.666667
vt 0.166667 0.500000
vt 0.000000 0.500000
vt 0.000000 0.333333
vt 0.166667 0.166667
vt 0.000000 0.166667
vt 0.000000 0.000000
vt 0.500000 0.500000
vt 0.833333 0.000000
vt 0.833333 0.166667
vt 1.000000 0.166667
vt 1.000000 0.333333
vt 0.000000 0.833333
vt 0.166667 0.833333
vt 0.333333 0.666667
vt 0.000000 0.666667
vt 1.000000 0.000000
vt 0.000000 1.000000
vn -0.707100 0.000000 -0.707100
vn -0.577300 -0.577300 -0.577300
vn -0.707100 -0.707100 0.000000
vn 0.707100 0.000000 -0.707100
vn 0.577300 -0.577300 -0.577300
vn 0.000000 -0.707100 -0.707100
vn 0.707100 0.000000 0.707100
vn 0.577300 -0.577300 0.577300
vn 0.707100 -0.707100 0.000000
vn -0.707100 0.000000 0.707100
vn -0.577300 -0.577300 0.577300
vn 0.000000 -0.707100 0.707100
vn 0.000000 0.707100 -0.707100
vn -0.577300 0.577300 -0.577300
vn -0.707100 0.707100 0.000000
vn -1.000000 0.000000 0.000000
vn 0.000000 0.000000 -1.000000
vn 0.577300 0.577300 -0.577300
vn 1.000000 0.000000 0.000000
vn 0.707100 0.707100 0.000000
vn 0.577300 0.577300 0.577300
vn 0.000000 0.000000 1.000000
vn 0.000000 0.707100 0.707100
vn -0.577300 0.577300 0.577300
vn 0.000000 -1.000000 0.000000
vn 0.000000 1.000000 0.000000
s 1
f 1/1/1 2/2/2 3/3/3
f 4/4/4 5/5/5 6/6/6
f 7/7/7 8/8/8 9/9/9
f 10/10/10 11/11/11 12/12/12
f 6/13/6 5/14/5 9/3/9
f 13/15/13 14/16/14 15/17/15
f 10/18/10 16/19/16 3/3/3
f 15/9/15 16/19/16 10/18/10
f 14/8/14 1/1/1 15/9/15
f 1/20/1 17/21/17 6/6/6
f 17/21/17 1/20/1 13/22/13
f 13/22/13 18/23/18 4/4/4
f 4/4/4 19/24/19 9/9/9
f 20/25/20 19/24/19 4/4/4
f 20/25/20 21/26/21 7/7/7
f 7/6/7 22/27/22 12/12/12
f 23/18/23 22/27/22 7/6/7
f 23/18/23 24/14/24 10/10/10
f 12/28/12 25/29/25 9/3/9
f 3/30/3 25/29/25 12/28/12
f 3/30/3 2/31/2 6/13/6
f 23/32/23 26/33/26 15/17/15
f 20/20/20 26/33/26 23/32/23
f 20/20/20 18/34/18 13/15/13
f 16/19/16 1/1/1 3/3/3
f 17/21/17 4/4/4 6/6/6
f 19/24/19 7/7/7 9/9/9
f 22/27/22 10/10/10 12/12/12
f 25/29/25 6/13/6 9/3/9
f 26/33/26 13/15/13 15/17/15
f 11/14/11 10/18/10 3/3/3
f 24/5/24 15/9/15 10/18/10
f 15/9/15 1/1/1 16/19/16
f 2/34/2 1/20/1 6/6/6
f 13/22/13 1/20/1 14/35/14
f 17/21/17 13/22/13 4/4/4
f 5/5/5 4/4/4 9/9/9
f 18/23/18 20/25/20 4/4/4
f 19/24/19 20/25/20 7/7/7
f 8/34/8 7/6/7 12/12/12
f 21/5/21 23/18/23 7/6/7
f 22/27/22 23/18/23 10/10/10
f 8/2/8 12/28/12 9/3/9
f 11/36/11 3/30/3 12/28/12
f 25/29/25 3/30/3 6/13/6
f 24/37/24 23/32/23 15/17/15
f 21/35/21 20/20/20 23/32/23
f 26/33/26 20/20/20 13/15/13
